#!OML:ASF F:\VICON\USERDATA\INSTALL\rory3\rory3.ASF
:FULLY-SPECIFIED
:DEGREES
1893
root -4.55907 17.7084 0.90368 217.122 -84.4064 157.972
lowerback 7.50913 -1.91608 0.570515
upperback 4.43933 -2.76446 5.71036
thorax 0.656946 -1.565 5.80055
lowerneck -4.89659 -7.97602 -11.2558
upperneck 39.9636 -14.7044 3.17443
head 16.2292 -8.16252 0.917198
rclavicle 2.54444e-014 1.59028e-015
rhumerus -36.7595 -0.496266 -65.7853
rradius 26.5851
rwrist 51.8707
rhand -29.3486 5.94038
rfingers 7.12502
rthumb -2.68836 -24.0224
lclavicle 2.54444e-014 1.59028e-015
lhumerus -27.7514 -2.62828 82.8109
lradius 57.0014
lwrist 0.0518989
lhand -17.0784 22.3373
lfingers 7.12502
lthumb 9.15967 52.1184
rfemur -32.6367 5.01204 8.95341
rtibia 33.9122
rfoot -7.99827 14.1657
rtoes 13.1494
lfemur -33.2396 -5.43134 -10.2081
ltibia 20.7972
lfoot -1.89265 3.26467
ltoes -15.9099
1894
root -4.51178 17.713 0.834689 221.476 -84.6732 153.637
lowerback 7.71889 -2.01815 0.472079
upperback 4.56484 -2.91374 5.77612
thorax 0.695743 -1.64908 5.94345
lowerneck -4.98124 -7.83278 -11.3434
upperneck 39.862 -14.4237 3.23238
head 16.1802 -8.04185 1.00452
rclavicle 4.92986e-014 -9.54166e-015
rhumerus -36.4226 0.305285 -66.1393
rradius 26.4337
rwrist 51.379
rhand -29.0174 6.57613
rfingers 7.12502
rthumb -2.3685 -23.3905
lclavicle 4.92986e-014 -9.54166e-015
lhumerus -27.8836 -1.44633 82.9152
lradius 56.9041
lwrist -0.704384
lhand -16.5551 21.2888
lfingers 7.12502
lthumb 9.66463 51.0471
rfemur -32.8734 4.82396 8.92115
rtibia 34.2015
rfoot -8.0014 14.0397
rtoes 13.8483
lfemur -33.3724 -5.78081 -10.1902
ltibia 20.6838
lfoot -2.32082 3.77827
ltoes -17.1756
1895
root -4.46394 17.7187 0.762452 226.972 -84.9522 148.202
lowerback 7.91279 -2.10849 0.354246
upperback 4.64795 -3.0431 5.80799
thorax 0.697002 -1.72033 6.06098
lowerneck -5.01727 -7.76627 -11.132
upperneck 39.7716 -14.2305 3.0437
head 16.0754 -7.94504 0.928602
rclavicle 7.95139e-015 -5.40694e-014
rhumerus -36.2083 0.979288 -66.6248
rradius 26.2949
rwrist 50.6046
rhand -28.9027 7.09453
rfingers 7.12502
rthumb -2.25779 -22.8733
lclavicle 7.95139e-015 -5.40694e-014
lhumerus -28.1271 -1.13047 83.2468
lradius 57.2462
lwrist 0.0345862
lhand -17.7724 22.8506
lfingers 7.12502
lthumb 8.49001 52.66
rfemur -33.1098 4.5622 8.88775
rtibia 34.4575
rfoot -8.08322 13.8566
rtoes 14.7359
lfemur -33.5249 -5.57253 -10.4439
ltibia 20.522
lfoot -2.40451 3.70201
ltoes -17.9145
1896
root -4.4158 17.7236 0.691966 234.235 -85.2059 141.017
lowerback 8.07125 -2.19331 0.205311
upperback 4.69174 -3.16473 5.85716
thorax 0.679681 -1.78709 6.21392
lowerneck -4.99422 -7.72426 -11.0106
upperneck 39.6868 -14.0901 2.90044
head 15.9817 -7.87923 0.88016
rclavicle -1.51076e-014 2.06736e-014
rhumerus -36.0961 1.47865 -66.9711
rradius 26.1925
rwrist 49.9754
rhand -28.9428 7.34285
rfingers 7.12502
rthumb -2.29643 -22.6245
lclavicle -1.51076e-014 2.06736e-014
lhumerus -28.4046 -0.739297 83.4602
lradius 57.431
lwrist 0.185077
lhand -18.2256 23.1802
lfingers 7.12502
lthumb 8.05258 53.0068
rfemur -33.3154 4.18196 8.85635
rtibia 34.6733
rfoot -8.31534 13.5714
rtoes 14.0795
lfemur -33.6816 -5.16201 -10.8881
ltibia 20.3552
lfoot -2.25191 3.4071
ltoes -18.7629
1897
root -4.36807 17.733 0.623475 241.07 -85.4297 134.203
lowerback 8.19735 -2.22413 0.165381
upperback 4.82703 -3.22103 5.9547
thorax 0.766639 -1.82563 6.34793
lowerneck -5.10428 -7.68813 -11.2206
upperneck 39.6414 -14.0006 3.06049
head 16.0143 -7.83759 0.992764
rclavicle 6.36111e-015 -4.13472e-014
rhumerus -35.8953 1.55854 -67.0481
rradius 26.1133
rwrist 49.8006
rhand -28.9665 7.8338
rfingers 7.12502
rthumb -2.31937 -22.1333
lclavicle 6.36111e-015 -4.13472e-014
lhumerus -28.4949 -0.441698 83.7584
lradius 57.4697
lwrist 0.138325
lhand -18.2617 22.9399
lfingers 7.12502
lthumb 8.01775 52.7679
rfemur -33.4455 4.17187 8.79538
rtibia 34.8409
rfoot -8.49771 13.1145
rtoes 14.642
lfemur -33.8002 -4.91892 -11.1935
ltibia 20.3377
lfoot -2.13537 3.27319
ltoes -20.7807
1898
root -4.32071 17.7449 0.555701 248.396 -85.6624 126.97
lowerback 8.24495 -2.20594 0.275746
upperback 4.96068 -3.20456 6.04487
thorax 0.878349 -1.82419 6.37909
lowerneck -5.23214 -7.74151 -11.3037
upperneck 39.547 -14.0185 3.14345
head 16.0148 -7.82621 1.03556
rclavicle -1.59028e-014 -4.29375e-014
rhumerus -35.7587 1.50542 -67.1082
rradius 26.1137
rwrist 49.5662
rhand -29.1013 8.55229
rfingers 7.12502
rthumb -2.44957 -21.4134
lclavicle -1.59028e-014 -4.29375e-014
lhumerus -28.439 -0.370716 84.0875
lradius 57.3325
lwrist -0.00230927
lhand -18.2271 22.647
lfingers 7.12502
lthumb 8.05116 52.4737
rfemur -33.6284 4.282 8.75192
rtibia 34.9671
rfoot -8.64775 12.5489
rtoes 16.336
lfemur -34.0691 -4.39849 -11.5502
ltibia 20.512
lfoot -1.92467 2.76081
ltoes -23.4893
1899
root -4.27055 17.7526 0.491929 256.895 -85.7999 118.674
lowerback 8.22772 -2.20456 0.399998
upperback 5.01752 -3.20171 6.10215
thorax 0.943964 -1.82399 6.36659
lowerneck -5.22963 -7.80912 -11.1335
upperneck 39.413 -14.0598 3.06671
head 15.922 -7.8139 0.976726
rclavicle 4.6118e-014 -5.08889e-014
rhumerus -35.7103 1.4247 -67.2194
rradius 26.1433
rwrist 49.3572
rhand -29.2417 9.24695
rfingers 7.12502
rthumb -2.58514 -20.7171
lclavicle 4.6118e-014 -5.08889e-014
lhumerus -28.4803 -0.498025 84.4024
lradius 57.2385
lwrist 0.0343567
lhand -18.7223 22.7276
lfingers 7.12502
lthumb 7.57319 52.572
rfemur -33.9306 3.9736 8.81738
rtibia 35.0457
rfoot -8.77015 12.1271
rtoes 16.2882
lfemur -34.5189 -3.76944 -11.9745
ltibia 20.8698
lfoot -1.79448 1.85204
ltoes -24.5609
1900
root -4.22033 17.7562 0.432067 264.671 -85.8167 111.09
lowerback 8.21523 -2.22962 0.4563
upperback 5.06401 -3.23812 6.17222
thorax 1.00521 -1.84522 6.40984
lowerneck -5.1572 -7.77546 -11.1465
upperneck 39.3412 -13.9964 3.11426
head 15.8672 -7.77747 1.01873
rclavicle -3.73715e-014 9.54166e-014
rhumerus -35.672 1.56902 -67.4042
rradius 26.2218
rwrist 49.2207
rhand -29.3509 9.89929
rfingers 7.12502
rthumb -2.69064 -20.0635
lclavicle -3.73715e-014 9.54166e-014
lhumerus -28.6343 -0.618395 84.6624
lradius 57.263
lwrist 0.0342902
lhand -18.9514 23.2369
lfingers 7.12502
lthumb 7.35207 53.0891
rfemur -34.2347 3.63757 8.90659
rtibia 35.0928
rfoot -8.90953 11.759
rtoes 14.5718
lfemur -34.9629 -3.30241 -12.3621
ltibia 21.4142
lfoot -1.83284 0.986563
ltoes -25.1153
1901
root -4.1743 17.7639 0.370917 270.598 -85.8388 105.269
lowerback 8.3066 -2.25231 0.447545
upperback 5.11428 -3.27809 6.34326
thorax 1.02465 -1.87418 6.60455
lowerneck -5.12485 -7.69513 -11.3958
upperneck 39.3769 -13.8286 3.12253
head 15.8884 -7.7381 1.09276
rclavicle -5.56597e-014 4.77083e-014
rhumerus -35.6737 2.27028 -67.6649
rradius 26.4128
rwrist 48.7853
rhand -29.5663 10.285
rfingers 7.12502
rthumb -2.8986 -19.675
lclavicle -5.56597e-014 4.77083e-014
lhumerus -28.8319 -0.438254 84.9883
lradius 57.1552
lwrist -0.201719
lhand -18.8778 23.5908
lfingers 7.12502
lthumb 7.42306 53.4406
rfemur -34.438 3.89546 8.91212
rtibia 35.1241
rfoot -9.11501 11.0936
rtoes 14.1816
lfemur -35.2959 -2.90616 -12.6297
ltibia 22.1003
lfoot -1.86921 0.308719
ltoes -25.7636
1902
root -4.12954 17.7756 0.308687 276.853 -85.7551 99.067
lowerback 8.47444 -2.31071 0.309113
upperback 5.15826 -3.37163 6.53526
thorax 1.01139 -1.93377 6.90505
lowerneck -5.08072 -7.60352 -11.6676
upperneck 39.366 -13.6373 3.14223
head 15.8829 -7.69153 1.18106
rclavicle 1.35174e-014 2.54444e-014
rhumerus -35.6519 3.08277 -67.9003
rradius 26.6557
rwrist 48.3057
rhand -29.7244 10.4339
rfingers 7.12502
rthumb -3.05128 -19.524
lclavicle 1.35174e-014 2.54444e-014
lhumerus -29.0387 -0.133808 85.3535
lradius 56.9346
lwrist -0.385385
lhand -19.058 23.9398
lfingers 7.12502
lthumb 7.2492 53.7956
rfemur -34.5756 4.24034 8.82595
rtibia 35.1394
rfoot -9.4101 10.2903
rtoes 14.2803
lfemur -35.5765 -2.77741 -12.8661
ltibia 22.877
lfoot -1.87351 -0.0534186
ltoes -25.9751
1903
root -4.08361 17.7863 0.253581 283.969 -85.5763 92.0653
lowerback 8.52373 -2.30354 0.343687
upperback 5.23153 -3.36567 6.57217
thorax 1.06112 -1.93414 6.92545
lowerneck -5.05266 -7.66917 -11.4469
upperneck 39.2855 -13.7156 3.07468
head 15.8127 -7.69034 1.11112
rclavicle 4.77083e-014 -5.88403e-014
rhumerus -35.68 3.2316 -68.1621
rradius 26.8277
rwrist 48.0396
rhand -30.0195 10.4192
rfingers 7.12502
rthumb -3.33631 -19.5345
lclavicle 4.77083e-014 -5.88403e-014
lhumerus -29.0071 -0.399852 85.6397
lradius 56.6004
lwrist -0.700496
lhand -19.1799 23.5733
lfingers 7.12502
lthumb 7.13155 53.4332
rfemur -34.7349 4.35446 8.73057
rtibia 35.0991
rfoot -9.58352 9.55778
rtoes 14.1828
lfemur -35.9688 -2.4588 -13.2762
ltibia 23.7685
lfoot -1.75409 -0.575557
ltoes -25.76
1904
root -4.03746 17.7954 0.2008 290.528 -85.4622 85.6171
lowerback 8.60128 -2.29132 0.51532
upperback 5.28126 -3.34311 6.65205
thorax 1.06375 -1.9233 6.91455
lowerneck -5.00021 -7.72403 -11.3165
upperneck 39.2123 -13.7546 2.9781
head 15.7433 -7.69067 1.05125
rclavicle 1.59028e-015 -5.725e-014
rhumerus -35.7368 3.26443 -68.3417
rradius 26.9372
rwrist 47.9277
rhand -30.7484 10.2355
rfingers 7.12502
rthumb -4.0402 -19.706
lclavicle 1.59028e-015 -5.725e-014
lhumerus -29.0174 -0.696461 85.9653
lradius 56.2642
lwrist -1.08373
lhand -19.087 22.4861
lfingers 7.12502
lthumb 7.22121 52.3428
rfemur -34.8783 4.42955 8.7682
rtibia 35.0442
rfoot -9.66618 8.92232
rtoes 14.2122
lfemur -36.3631 -1.97205 -13.616
ltibia 24.7477
lfoot -1.63951 -1.23781
ltoes -25.6297
1905
root -3.99227 17.8083 0.147438 297.025 -85.3787 79.1179
lowerback 8.80497 -2.57485 0.551678
upperback 5.33414 -3.73353 6.97763
thorax 1.0783 -2.13601 7.2832
lowerneck -5.03426 -7.44288 -12.0834
upperneck 39.2281 -13.2154 3.07712
head 15.7921 -7.56397 1.30282
rclavicle 1.74931e-014 -1.09729e-013
rhumerus -35.423 4.60757 -68.4908
rradius 26.9722
rwrist 47.5472
rhand -31.4411 10.5689
rfingers 7.12502
rthumb -4.70908 -19.3588
lclavicle 1.74931e-014 -1.09729e-013
lhumerus -29.2909 0.172522 86.3352
lradius 55.9988
lwrist -1.50066
lhand -19.3113 21.4384
lfingers 7.12502
lthumb 7.00465 51.3025
rfemur -34.9097 4.43787 8.94832
rtibia 35.0245
rfoot -9.78085 8.41115
rtoes 14.2262
lfemur -36.581 -1.73678 -13.7493
ltibia 25.7399
lfoot -1.65629 -1.65091
ltoes -25.4194
